<svg width="18" height="20" viewBox="0 0 18 20" fill="none" xmlns="http://www.w3.org/2000/svg">
<g clip-path="url(#clip0_1647_216)">
<path d="M16.25 9.375H1.25V2.5C1.25 1.80859 1.80859 1.25 2.5 1.25H15C15.6914 1.25 16.25 1.80859 16.25 2.5V9.375ZM0 10V10.625V17.5C0 18.8789 1.12109 20 2.5 20H15C16.3789 20 17.5 18.8789 17.5 17.5V10.625V10V9.375V2.5C17.5 1.12109 16.3789 0 15 0H2.5C1.12109 0 0 1.12109 0 2.5V9.375V10ZM16.25 17.5C16.25 18.1914 15.6914 18.75 15 18.75H2.5C1.80859 18.75 1.25 18.1914 1.25 17.5V10.625H16.25V17.5ZM6.25 3.75C5.55859 3.75 5 4.30859 5 5V5.625C5 5.96875 5.28125 6.25 5.625 6.25C5.96875 6.25 6.25 5.96875 6.25 5.625V5H11.25V5.625C11.25 5.96875 11.5312 6.25 11.875 6.25C12.2188 6.25 12.5 5.96875 12.5 5.625V5C12.5 4.30859 11.9414 3.75 11.25 3.75H6.25ZM6.25 13.75C5.55859 13.75 5 14.3086 5 15V15.625C5 15.9688 5.28125 16.25 5.625 16.25C5.96875 16.25 6.25 15.9688 6.25 15.625V15H11.25V15.625C11.25 15.9688 11.5312 16.25 11.875 16.25C12.2188 16.25 12.5 15.9688 12.5 15.625V15C12.5 14.3086 11.9414 13.75 11.25 13.75H6.25Z" fill="#1F326C"/>
</g>
<defs>
<clipPath id="clip0_1647_216">
<rect width="17.5" height="20" fill="white"/>
</clipPath>
</defs>
</svg>
