<svg width="9" height="18" viewBox="0 0 9 18" fill="none" xmlns="http://www.w3.org/2000/svg">
<mask id="path-1-inside-1_1647_231" fill="white">
<path d="M8.69141 8.55859C8.93359 8.80078 8.93359 9.19922 8.69141 9.44141L1.19141 16.9414C0.949219 17.1836 0.550781 17.1836 0.308594 16.9414C0.0664062 16.6992 0.0664062 16.3008 0.308594 16.0586L7.36719 9L0.308594 1.94141C0.0664062 1.69922 0.0664062 1.30078 0.308594 1.05859C0.550781 0.816406 0.949219 0.816406 1.19141 1.05859L8.69141 8.55859Z"/>
</mask>
<path d="M8.69141 8.55859C8.93359 8.80078 8.93359 9.19922 8.69141 9.44141L1.19141 16.9414C0.949219 17.1836 0.550781 17.1836 0.308594 16.9414C0.0664062 16.6992 0.0664062 16.3008 0.308594 16.0586L7.36719 9L0.308594 1.94141C0.0664062 1.69922 0.0664062 1.30078 0.308594 1.05859C0.550781 0.816406 0.949219 0.816406 1.19141 1.05859L8.69141 8.55859Z" fill="#1F326C"/>
<path d="M8.69141 8.55859L7.27719 9.97281L8.69141 8.55859ZM8.69141 9.44141L7.27719 8.02719L8.69141 9.44141ZM1.19141 16.9414L2.60562 18.3556H2.60562L1.19141 16.9414ZM0.308594 16.0586L1.72281 17.4728H1.72281L0.308594 16.0586ZM7.36719 9L8.7814 10.4142L10.1956 9L8.7814 7.58579L7.36719 9ZM0.308594 1.94141L1.72281 0.527193L0.308594 1.94141ZM1.19141 1.05859L2.60562 -0.35562L2.60562 -0.35562L1.19141 1.05859ZM7.27719 9.97281C6.73833 9.43395 6.73833 8.56605 7.27719 8.02719L10.1056 10.8556C11.1289 9.83238 11.1289 8.16762 10.1056 7.14438L7.27719 9.97281ZM7.27719 8.02719L-0.222807 15.5272L2.60562 18.3556L10.1056 10.8556L7.27719 8.02719ZM-0.222807 15.5272C0.316054 14.9883 1.18395 14.9883 1.72281 15.5272L-1.10562 18.3556C-0.0823838 19.3789 1.58238 19.3789 2.60562 18.3556L-0.222807 15.5272ZM1.72281 15.5272C2.26167 16.0661 2.26167 16.9339 1.72281 17.4728L-1.10562 14.6444C-2.12886 15.6676 -2.12886 17.3324 -1.10562 18.3556L1.72281 15.5272ZM1.72281 17.4728L8.7814 10.4142L5.95297 7.58579L-1.10562 14.6444L1.72281 17.4728ZM8.7814 7.58579L1.72281 0.527193L-1.10562 3.35562L5.95297 10.4142L8.7814 7.58579ZM1.72281 0.527193C2.26167 1.06605 2.26167 1.93395 1.72281 2.47281L-1.10562 -0.35562C-2.12886 0.667616 -2.12886 2.33238 -1.10562 3.35562L1.72281 0.527193ZM1.72281 2.47281C1.18395 3.01167 0.316054 3.01167 -0.222807 2.47281L2.60562 -0.35562C1.58238 -1.37886 -0.0823838 -1.37886 -1.10562 -0.35562L1.72281 2.47281ZM-0.222807 2.47281L7.27719 9.97281L10.1056 7.14438L2.60562 -0.35562L-0.222807 2.47281Z" fill="#1F326C" mask="url(#path-1-inside-1_1647_231)"/>
</svg>
