<svg width="23" height="20" viewBox="0 0 23 20" fill="none" xmlns="http://www.w3.org/2000/svg">
<path d="M11.6641 0.15625C11.4298 -0.0507812 11.0743 -0.0507812 10.836 0.15625L0.211007 9.53125C-0.0468057 9.75781 -0.0741495 10.1563 0.156319 10.4141C0.386788 10.6719 0.781319 10.6992 1.03913 10.4688L2.50007 9.17969V16.875C2.50007 18.6016 3.89851 20 5.62507 20H16.8751C18.6016 20 20.0001 18.6016 20.0001 16.875V9.17969L21.461 10.4688C21.7188 10.6953 22.1133 10.6719 22.3438 10.4141C22.5743 10.1563 22.5469 9.76172 22.2891 9.53125L11.6641 0.15625ZM3.75007 16.875V8.07422L11.2501 1.45703L18.7501 8.07422V16.875C18.7501 17.9102 17.9102 18.75 16.8751 18.75H14.3751V12.5C14.3751 11.8086 13.8165 11.25 13.1251 11.25H9.37507C8.68366 11.25 8.12507 11.8086 8.12507 12.5V18.75H5.62507C4.58991 18.75 3.75007 17.9102 3.75007 16.875ZM9.37507 18.75V12.5H13.1251V18.75H9.37507Z" fill="#1F326C"/>
</svg>
