<svg width="25" height="18" viewBox="0 0 25 18" fill="none" xmlns="http://www.w3.org/2000/svg">
<path d="M2.5 1.75H20C20.6914 1.75 21.25 2.30859 21.25 3V5.71875C21.6484 5.5625 22.0742 5.48828 22.5 5.5V3C22.5 1.62109 21.3789 0.5 20 0.5H2.5C1.12109 0.5 0 1.62109 0 3V13C0 14.3789 1.12109 15.5 2.5 15.5H12.8984L13.2109 14.25H2.5C1.80859 14.25 1.25 13.6914 1.25 13V3C1.25 2.30859 1.80859 1.75 2.5 1.75ZM4.375 9.25C4.03125 9.25 3.75 9.53125 3.75 9.875C3.75 10.2188 4.03125 10.5 4.375 10.5H14.375C14.7188 10.5 15 10.2188 15 9.875C15 9.53125 14.7188 9.25 14.375 9.25H4.375ZM3.75 6.125C3.75 6.46875 4.03125 6.75 4.375 6.75H18.125C18.4688 6.75 18.75 6.46875 18.75 6.125C18.75 5.78125 18.4688 5.5 18.125 5.5H4.375C4.03125 5.5 3.75 5.78125 3.75 6.125ZM22.7656 8.3125L23.4453 8.99219C23.6875 9.23438 23.6875 9.63281 23.4453 9.875L22.4766 10.8438L20.9141 9.28125L21.8828 8.3125C22.125 8.07031 22.5234 8.07031 22.7656 8.3125ZM15.8789 14.3164L20.0273 10.168L21.5898 11.7305L17.4375 15.8789C17.3555 15.9609 17.2578 16.0156 17.1484 16.043L15.2344 16.5234L15.7148 14.6094C15.7422 14.5 15.8008 14.3984 15.8789 14.3203V14.3164ZM20.9961 7.42969L14.9922 13.4336C14.75 13.6758 14.582 13.9766 14.5 14.3047L13.7695 17.2305C13.7148 17.4453 13.7773 17.668 13.9336 17.8242C14.0898 17.9805 14.3125 18.043 14.5273 17.9883L17.4531 17.2578C17.7813 17.1758 18.082 17.0039 18.3242 16.7656L24.3281 10.7578C25.0586 10.0273 25.0586 8.83984 24.3281 8.10547L23.6484 7.42578C22.918 6.69531 21.7305 6.69531 20.9961 7.42578V7.42969Z" fill="#1F326C"/>
</svg>
